<?xml version="1.0" standalone="no"?>
<!DOCTYPE svg PUBLIC "-//W3C//DTD SVG 20010904//EN"
 "http://www.w3.org/TR/2001/REC-SVG-20010904/DTD/svg10.dtd">
<svg version="1.0" xmlns="http://www.w3.org/2000/svg"
 width="260.000000pt" height="260.000000pt" viewBox="0 0 260.000000 260.000000"
 preserveAspectRatio="xMidYMid meet">
<metadata>
Created by potrace 1.14, written by Peter Selinger 2001-2017
</metadata>
<g transform="translate(0.000000,260.000000) scale(0.100000,-0.100000)"
fill="#000000" stroke="none">
<path d="M1093 2593 c-7 -2 -13 -9 -13 -14 0 -6 6 -7 13 -3 6 4 1 -5 -13 -21
-14 -16 -19 -25 -12 -21 14 8 17 -10 2 -19 -5 -3 -10 -15 -10 -26 0 -10 -5
-19 -11 -19 -6 0 -9 -6 -6 -12 2 -7 -1 -20 -8 -28 -7 -8 -16 -30 -18 -49 -3
-18 -10 -38 -16 -44 -5 -5 -7 -15 -5 -22 3 -7 0 -16 -7 -21 -8 -5 -10 -3 -4 6
5 8 4 11 -3 7 -5 -4 -8 -16 -5 -27 3 -11 0 -20 -6 -20 -6 0 -11 -5 -11 -11 0
-5 6 -7 13 -4 6 4 5 1 -4 -7 -9 -7 -15 -21 -13 -31 2 -14 -2 -17 -14 -12 -13
5 -14 3 -6 -5 9 -9 7 -22 -8 -51 -10 -22 -16 -44 -13 -49 4 -6 0 -12 -7 -15
-7 -3 -14 -17 -15 -31 0 -15 -7 -30 -13 -34 -7 -4 -10 -12 -6 -18 3 -6 1 -12
-5 -14 -6 -2 -12 -16 -12 -31 -1 -15 -6 -27 -10 -27 -5 0 -6 -4 -2 -9 3 -5 1
-12 -5 -16 -6 -4 -8 -11 -5 -16 4 -5 1 -9 -5 -9 -6 0 -9 -4 -5 -9 3 -5 -2 -16
-10 -24 -11 -12 -12 -17 -2 -20 9 -4 9 -6 -1 -6 -7 -1 -10 -5 -7 -11 3 -5 1
-10 -5 -10 -7 0 -10 -6 -7 -12 2 -7 -3 -22 -12 -32 -9 -11 -11 -16 -4 -13 14
9 -13 -50 -28 -59 -6 -4 -6 -11 2 -20 8 -10 8 -14 0 -14 -6 0 -10 -6 -8 -12 1
-7 -3 -12 -10 -11 -7 2 -10 -4 -7 -12 4 -9 1 -22 -6 -30 -10 -12 -10 -15 1
-15 12 0 12 -2 0 -9 -7 -5 -10 -14 -7 -20 4 -6 2 -10 -4 -9 -11 3 -19 -16 -22
-49 -1 -7 -6 -13 -11 -13 -5 0 -7 -7 -3 -15 3 -8 1 -15 -4 -15 -6 0 -9 -3 -9
-7 3 -20 -2 -34 -11 -28 -6 3 -7 -1 -4 -10 4 -9 9 -13 12 -11 3 3 11 1 19 -5
7 -6 13 -7 13 -2 0 13 70 11 70 -2 0 -6 3 -6 8 1 9 13 64 13 74 -1 5 -6 8 -5
8 3 0 8 7 11 19 7 27 -8 47 3 48 28 1 12 7 23 13 25 5 2 10 8 10 13 0 6 -6 7
-12 4 -7 -4 -6 -1 3 7 9 7 14 19 12 26 -3 6 -1 12 5 12 5 0 9 7 10 15 1 8 3
22 4 30 1 8 5 15 10 15 5 0 6 10 3 21 -5 16 -4 19 6 14 9 -6 11 -2 7 13 -4 12
-3 20 1 18 4 -3 13 4 20 16 7 11 8 17 2 13 -6 -3 -11 -1 -11 4 0 6 5 11 11 11
5 0 7 6 3 13 -5 7 0 6 11 -3 15 -12 17 -12 10 -1 -6 11 -3 13 13 9 13 -4 22
-1 22 5 0 8 3 8 8 2 8 -11 74 -17 68 -6 -3 4 12 6 32 5 20 -1 37 -3 37 -4 0
-1 12 -3 28 -5 15 -2 25 0 22 6 -4 5 4 5 19 -1 19 -7 26 -6 26 3 0 7 3 8 8 2
8 -11 74 -17 68 -6 -6 9 67 6 82 -3 7 -4 16 -5 20 -2 4 2 8 -7 7 -22 0 -15 5
-33 12 -40 7 -8 11 -18 8 -23 -4 -5 -1 -9 5 -9 6 0 9 -4 5 -9 -3 -5 0 -13 6
-16 5 -4 8 -13 5 -21 -3 -8 1 -17 10 -21 13 -5 13 -7 2 -14 -10 -7 -11 -9 0
-9 7 0 10 -4 7 -10 -3 -5 -1 -10 6 -10 6 0 9 -8 7 -18 -3 -10 1 -23 9 -30 7
-7 11 -17 8 -23 -4 -5 -1 -9 5 -9 6 0 9 -4 6 -9 -3 -5 51 -8 119 -8 69 1 125
5 125 10 0 4 5 5 12 1 7 -4 2 6 -10 23 -12 17 -19 33 -15 37 3 3 1 6 -7 6 -10
0 -10 4 1 17 8 10 9 14 2 10 -6 -4 -14 -3 -18 3 -3 5 0 10 7 10 8 1 6 6 -6 15
-11 8 -17 15 -13 15 3 0 -2 19 -13 42 -10 22 -16 48 -12 56 3 10 1 13 -6 8 -8
-5 -12 1 -12 18 0 14 -6 26 -12 26 -10 0 -10 2 0 9 11 6 10 10 -4 15 -9 3 -14
9 -11 13 4 3 1 13 -6 21 -10 13 -9 14 2 8 8 -6 7 0 -4 18 -10 14 -13 26 -9 26
5 0 3 4 -3 8 -7 5 -14 20 -15 35 -1 15 -6 27 -10 27 -4 0 -8 8 -8 18 0 10 -4
22 -10 28 -5 5 -11 22 -12 36 -1 15 -5 25 -9 22 -4 -2 -10 3 -13 12 -8 22 -8
26 4 19 15 -10 12 0 -9 24 -11 13 -17 29 -14 37 3 8 -1 14 -8 14 -7 0 -9 3 -6
7 4 3 2 12 -4 20 -6 7 -9 13 -5 13 4 0 0 14 -9 30 -9 17 -12 30 -8 30 4 0 -2
7 -13 16 -19 15 -19 16 0 9 19 -6 19 -5 2 14 -10 10 -19 25 -20 33 -2 7 -5 20
-9 28 -11 32 -18 55 -17 58 1 2 -6 15 -15 29 -12 18 -13 23 -4 18 9 -4 9 -2
-1 7 -8 7 -15 19 -16 26 -2 29 -5 33 -15 26 -8 -4 -8 0 0 15 9 16 9 21 0 21
-6 0 -8 7 -5 16 3 8 2 13 -3 10 -11 -7 -23 22 -15 35 3 5 0 9 -6 9 -7 0 -10 7
-6 15 3 8 1 15 -5 15 -6 0 -9 6 -6 14 3 8 -1 17 -9 20 -19 7 -294 7 -311 -1z
m177 -238 c-8 -9 -8 -15 0 -20 6 -3 8 -11 5 -16 -4 -5 0 -9 7 -9 9 0 9 -3 -2
-10 -13 -8 -12 -10 3 -10 19 0 24 -20 5 -20 -8 -1 -6 -6 4 -14 10 -7 15 -16
11 -19 -3 -4 0 -7 8 -7 11 0 11 -2 1 -9 -11 -7 -11 -11 2 -24 12 -11 13 -17 3
-20 -7 -4 -6 -6 5 -6 11 -1 15 -7 11 -21 -3 -11 -1 -20 4 -20 5 0 10 -6 11
-12 3 -33 24 -98 32 -98 4 0 6 -11 5 -25 -2 -16 2 -25 11 -25 8 0 14 -5 14
-11 0 -5 -6 -7 -12 -3 -10 6 -10 4 0 -7 6 -7 12 -21 12 -31 0 -10 5 -18 11
-18 8 0 9 -4 0 -13 -8 -11 -50 -14 -176 -14 l-165 0 4 26 c2 14 5 30 5 34 1 5
5 6 9 3 4 -2 7 11 7 29 -1 19 3 33 8 32 5 -1 11 5 13 13 1 8 5 26 8 39 3 13
13 33 23 45 18 20 17 20 -2 6 -19 -15 -19 -15 -2 13 10 15 15 32 12 37 -4 6 0
13 8 16 9 3 13 13 10 25 -3 11 0 19 8 19 7 0 9 3 6 7 -4 3 -1 13 6 21 10 13 9
14 -3 7 -13 -8 -13 -6 -1 8 7 9 11 23 7 32 -3 8 0 14 6 12 7 -1 12 7 12 18 0
11 7 26 16 33 9 8 10 11 2 7 -11 -6 -12 -3 -2 14 9 18 14 20 26 10 10 -8 11
-15 4 -24z"/>
<path d="M1821 1263 c-6 -10 -11 -14 -11 -9 0 5 -6 3 -14 -3 -10 -9 -16 -9
-21 -1 -5 8 -14 6 -31 -5 -14 -9 -29 -13 -34 -10 -6 3 -10 1 -10 -5 0 -6 -4
-9 -9 -5 -5 3 -17 -2 -25 -11 -9 -9 -16 -11 -16 -4 0 6 -5 8 -10 5 -6 -4 -8
-11 -5 -16 3 -5 -1 -6 -9 -3 -9 3 -16 1 -16 -6 0 -6 -4 -9 -9 -6 -5 3 -12 -1
-15 -9 -3 -8 -9 -14 -14 -13 -4 2 -22 -12 -40 -30 -18 -18 -32 -29 -32 -25 0
4 -16 -14 -35 -41 -19 -27 -32 -53 -28 -59 3 -6 1 -7 -5 -3 -11 6 -16 -6 -13
-26 0 -5 -3 -8 -9 -8 -5 0 -10 -6 -10 -14 0 -8 -7 -22 -16 -30 -10 -10 -11
-16 -3 -16 9 0 8 -4 -1 -15 -7 -8 -9 -15 -5 -15 4 0 2 -7 -5 -15 -7 -8 -9 -15
-5 -15 4 0 1 -8 -6 -17 -12 -15 -12 -16 1 -8 12 7 13 6 3 -6 -6 -8 -10 -27 -9
-42 2 -15 -2 -27 -8 -27 -6 0 -4 -5 4 -10 12 -8 12 -10 1 -10 -10 0 -11 -3 -2
-14 9 -11 9 -16 0 -22 -8 -5 -9 -3 -4 6 5 9 4 11 -4 6 -6 -4 -8 -13 -4 -19 4
-7 9 -23 10 -37 3 -20 1 -22 -7 -10 -5 8 -10 10 -10 4 0 -6 3 -14 7 -18 8 -7
10 -23 14 -113 2 -35 8 -59 13 -56 5 4 7 -1 3 -10 -3 -10 -2 -17 2 -17 5 0 7
-9 4 -20 -3 -11 -1 -20 4 -20 5 0 10 -12 11 -27 1 -15 7 -30 12 -33 6 -4 13
-17 15 -30 2 -13 10 -27 17 -32 7 -4 9 -8 5 -8 -5 0 -1 -7 7 -16 9 -8 14 -20
10 -25 -3 -5 0 -8 7 -7 7 2 18 -7 24 -20 5 -12 16 -22 23 -22 7 0 10 -4 7 -10
-3 -5 -1 -10 6 -10 6 0 22 -11 34 -24 13 -14 26 -22 29 -19 3 4 6 1 6 -5 0 -7
7 -12 15 -12 8 0 15 -5 15 -11 0 -6 7 -8 16 -5 8 3 12 2 9 -4 -3 -6 -1 -10 4
-10 19 0 26 -2 46 -13 11 -6 23 -10 28 -9 4 1 7 -4 7 -11 0 -8 4 -7 10 3 7 11
10 11 10 2 0 -7 5 -10 10 -7 6 3 10 2 10 -2 0 -11 12 -12 188 -19 79 -3 142
-2 142 3 0 9 13 12 69 16 16 1 28 5 26 8 -4 5 50 28 67 29 5 0 19 10 32 21 13
12 28 21 33 22 12 1 73 68 73 80 0 6 3 7 6 4 4 -4 1 -15 -7 -24 -13 -16 -12
-17 4 -4 9 7 17 20 17 27 0 8 4 14 10 14 5 0 9 6 7 12 -1 7 4 12 12 10 8 -2
11 3 8 12 -3 8 1 17 9 20 9 3 12 10 9 16 -3 5 -1 10 5 10 6 0 8 5 5 10 -3 6
-1 10 5 10 6 0 10 15 8 34 -1 19 -5 33 -8 31 -4 -2 -18 2 -33 10 -15 8 -27 11
-27 8 0 -3 -10 2 -22 13 -12 10 -18 13 -14 7 5 -9 2 -11 -8 -7 -9 3 -16 10
-16 14 0 5 -8 7 -17 6 -10 -2 -21 1 -24 6 -7 11 -51 20 -44 8 3 -5 1 -11 -5
-15 -5 -3 -10 -15 -10 -26 0 -11 -4 -17 -10 -14 -5 3 -10 -3 -10 -14 0 -12 -5
-21 -11 -21 -5 0 -7 -5 -3 -12 5 -8 2 -9 -10 -5 -12 5 -16 3 -14 -5 4 -12 -43
-59 -59 -59 -4 0 -15 -6 -23 -13 -34 -29 -78 -38 -189 -37 -58 0 -87 4 -92 13
-7 10 -9 10 -9 -2 -1 -12 -3 -11 -11 3 -6 9 -15 15 -20 12 -14 -9 -119 74
-119 94 0 6 -4 11 -10 11 -5 0 -10 7 -10 15 0 8 -4 15 -10 15 -5 0 -10 9 -10
19 0 11 -6 22 -12 24 -10 4 -10 6 0 6 10 1 10 5 -2 17 -9 8 -14 20 -11 25 4 5
1 9 -6 9 -9 0 -9 3 0 14 10 11 8 17 -6 25 -14 8 -15 10 -3 11 13 0 13 1 0 10
-12 8 -12 10 -1 10 9 0 10 4 4 13 -5 6 -8 46 -6 87 2 41 3 88 3 104 0 15 4 34
10 40 5 7 8 22 5 34 -2 12 3 28 11 36 8 8 14 20 14 26 0 15 31 63 47 73 8 5
10 13 7 19 -5 8 -1 9 10 5 14 -5 17 -3 12 8 -3 8 -1 15 4 15 5 0 16 7 24 16 9
8 16 11 16 4 0 -6 10 -1 22 10 14 12 24 16 26 10 3 -7 10 -4 19 7 8 10 12 12
8 6 -4 -9 -1 -11 9 -7 9 3 16 9 16 13 0 10 134 7 142 -4 5 -6 8 -5 8 4 0 10 4
11 13 3 13 -11 16 -12 48 -12 11 0 17 -5 14 -10 -4 -6 -3 -10 2 -9 24 4 53 -2
48 -11 -3 -5 1 -10 9 -10 9 0 16 -5 16 -11 0 -5 3 -8 8 -6 4 2 24 -13 45 -35
20 -21 31 -38 25 -38 -7 0 -5 -5 5 -11 9 -5 17 -16 17 -23 0 -7 7 -13 15 -13
8 0 15 3 15 7 0 3 8 7 18 8 21 2 57 10 57 12 0 3 39 11 65 14 15 2 24 8 22 16
-2 11 1 10 14 -1 12 -9 15 -9 10 -1 -4 7 -2 12 5 12 7 0 5 8 -7 22 -10 12 -14
18 -7 15 8 -5 8 -1 0 18 -7 14 -15 25 -19 25 -5 0 -8 9 -8 21 0 13 -4 18 -12
13 -8 -5 -9 -2 -4 12 4 10 4 16 1 12 -8 -7 -45 22 -45 35 0 11 -30 41 -30 30
0 -4 -5 0 -11 10 -5 9 -17 17 -24 17 -8 0 -15 5 -15 10 0 6 -7 10 -16 10 -8 0
-12 5 -9 10 3 6 -5 10 -19 10 -14 0 -28 5 -31 10 -4 6 -10 8 -15 5 -4 -3 -11
2 -14 11 -5 13 -9 14 -21 4 -8 -7 -15 -8 -15 -2 0 5 -12 10 -27 10 -15 0 -29
5 -31 11 -3 9 -7 9 -18 0 -8 -6 -14 -7 -14 -2 0 4 -19 8 -42 7 -24 0 -51 3
-60 8 -9 4 -19 5 -22 0 -2 -4 -28 -6 -56 -5 -28 2 -49 -1 -46 -5 3 -5 -2 -9
-10 -9 -8 0 -13 6 -10 14 8 19 -1 16 -13 -4z m266 -1249 c-3 -3 -12 -4 -19 -1
-8 3 -5 6 6 6 11 1 17 -2 13 -5z"/>
<path d="M99 1227 c-6 -10 -7 -17 -1 -13 6 3 6 -10 2 -37 -5 -26 -4 -44 2 -48
6 -4 7 -12 2 -20 -13 -21 -14 -39 -2 -39 6 0 5 -6 -2 -15 -9 -11 -9 -15 -1
-15 7 0 9 -5 4 -12 -10 -17 -11 -32 -1 -38 4 -3 3 -22 -1 -43 -6 -22 -5 -37 0
-37 6 0 5 -9 -1 -20 -8 -15 -8 -20 1 -20 8 0 8 -4 -1 -15 -9 -11 -9 -15 -1
-15 7 0 9 -5 5 -12 -12 -20 -12 -52 0 -60 7 -5 6 -8 -4 -8 -10 0 -11 -3 -3 -8
8 -5 9 -21 3 -52 -5 -29 -5 -47 2 -51 6 -4 7 -12 2 -20 -13 -21 -14 -39 -2
-39 6 0 5 -6 -2 -15 -9 -11 -9 -15 -1 -15 7 0 9 -5 4 -12 -10 -17 -11 -32 -1
-38 4 -3 3 -22 -1 -43 -6 -22 -5 -37 0 -37 6 0 5 -9 -1 -20 -8 -15 -8 -20 1
-20 8 0 8 -4 -1 -15 -9 -11 -9 -15 -1 -15 7 0 9 -5 5 -12 -12 -20 -12 -52 0
-60 7 -5 6 -8 -4 -8 -10 0 -11 -3 -3 -8 8 -5 9 -21 3 -52 -5 -29 -5 -47 2 -51
6 -4 7 -12 2 -20 -13 -21 -14 -39 -2 -39 6 0 5 -6 -2 -15 -9 -11 -9 -15 -1
-15 7 0 9 -5 4 -12 -15 -25 -11 -38 15 -44 15 -3 32 -7 39 -9 6 -2 14 -1 17 3
11 10 36 11 36 1 0 -6 7 -6 18 0 11 6 24 6 35 0 10 -6 17 -6 17 -1 0 6 14 7
34 2 19 -4 40 -4 47 1 7 4 20 4 30 -1 9 -5 19 -6 23 -3 11 11 36 12 36 2 0 -6
7 -6 18 0 11 6 24 6 35 0 10 -6 17 -6 17 -1 0 6 14 7 34 2 19 -4 40 -4 47 1 7
4 20 4 30 -1 9 -5 19 -6 23 -3 10 11 36 12 36 2 0 -5 12 -4 27 2 19 7 29 7 31
0 2 -7 12 -7 29 0 20 7 28 6 35 -3 6 -10 8 -10 8 1 0 9 8 12 25 9 14 -3 25 -1
25 4 0 6 6 8 14 5 8 -3 19 0 25 7 6 7 24 11 41 10 16 -1 27 2 24 7 -3 5 4 9
15 9 12 0 21 5 21 11 0 5 4 8 9 4 5 -3 12 -1 16 5 4 6 11 7 17 4 6 -4 8 -2 5
3 -7 10 20 28 35 25 5 -1 7 1 7 6 -3 19 2 33 11 27 5 -3 15 5 22 19 6 14 15
26 20 26 5 0 7 4 3 9 -3 5 -1 12 5 16 6 4 8 10 5 15 -3 4 1 10 8 13 15 6 22
197 6 197 -5 0 -9 14 -9 30 0 21 -5 30 -16 30 -11 0 -14 6 -9 20 4 11 2 19 -2
18 -5 -2 -22 11 -37 27 -15 17 -24 23 -20 15 4 -8 -3 -5 -15 8 -12 12 -26 20
-32 17 -5 -4 -9 -1 -9 4 0 6 -7 11 -15 11 -8 0 -15 6 -15 13 0 8 -4 7 -10 -3
-7 -10 -10 -11 -10 -2 0 8 -9 11 -26 8 -21 -4 -24 -3 -14 10 15 17 6 18 -21 4
-10 -6 -19 -8 -19 -6 0 10 61 37 70 31 6 -3 10 2 10 12 0 15 2 16 10 3 7 -11
10 -11 10 -2 0 7 5 10 12 6 6 -4 8 -3 5 3 -7 11 28 45 37 36 3 -4 6 1 6 10 0
10 5 17 11 17 6 0 8 7 5 16 -3 8 -2 12 4 9 6 -3 10 1 10 10 0 9 4 14 9 11 5
-4 7 3 4 14 -3 12 0 20 6 20 7 0 9 5 5 11 -3 6 0 15 7 20 11 7 11 9 1 9 -9 0
-10 5 -2 19 7 14 7 22 0 26 -8 5 -8 11 -1 19 6 7 8 16 4 20 -6 6 -11 28 -15
69 -1 9 -6 17 -10 17 -4 0 -8 7 -8 15 0 8 -5 15 -11 15 -5 0 -8 4 -5 8 3 5 -4
14 -14 22 -10 8 -16 18 -13 23 3 6 1 7 -5 3 -6 -3 -14 0 -19 8 -4 8 -15 16
-23 18 -8 2 -21 9 -28 16 -8 7 -18 10 -23 7 -5 -4 -9 -1 -9 4 0 6 -7 11 -15
11 -8 0 -15 5 -15 11 0 8 -5 8 -15 -1 -12 -10 -15 -10 -15 0 0 7 -7 10 -15 6
-8 -3 -15 -1 -15 3 0 5 -10 7 -22 3 -13 -3 -19 -1 -15 6 8 11 -11 11 -30 -1
-6 -4 -14 -3 -17 1 -3 5 -152 9 -331 9 -315 0 -326 0 -336 -20z m456 -172 c39
1 76 4 82 8 6 4 19 0 27 -9 9 -8 16 -11 16 -5 0 6 7 11 16 11 8 0 13 -4 10 -9
-3 -4 6 -6 21 -3 18 3 24 1 19 -6 -5 -8 -1 -10 9 -6 22 9 102 -46 88 -60 -4
-3 -1 -6 6 -6 7 0 9 -5 6 -10 -4 -6 -3 -19 1 -28 10 -24 12 -52 3 -46 -4 2 -8
-4 -8 -13 1 -33 -9 -58 -19 -56 -7 2 -9 -4 -5 -14 5 -12 2 -15 -10 -10 -11 4
-17 1 -17 -9 0 -8 -4 -12 -10 -9 -5 3 -10 2 -10 -4 0 -6 -7 -8 -15 -5 -8 4
-15 1 -15 -4 0 -6 -9 -9 -20 -7 -11 2 -20 1 -20 -3 0 -6 -284 -6 -334 1 -21 2
-32 47 -12 47 7 0 7 3 1 8 -15 10 -19 46 -5 37 9 -6 9 -2 1 14 -9 16 -9 21 1
21 8 0 9 3 3 8 -15 10 -19 46 -5 37 9 -6 9 -2 1 14 -9 16 -9 21 1 21 9 0 9 3
2 8 -5 4 -10 18 -10 32 0 14 5 28 10 33 7 4 6 10 -4 17 -18 11 70 8 88 -4 8
-5 10 -1 5 10 -5 13 -2 15 13 7 10 -5 51 -8 89 -8z m-155 -494 c0 9 3 10 8 4
9 -14 95 -13 104 0 5 7 8 6 8 0 0 -13 49 -13 69 0 10 5 16 4 19 -3 2 -7 11 -8
27 -2 14 5 27 5 30 1 6 -10 24 -9 42 2 6 4 14 3 17 -2 4 -5 17 -8 31 -6 14 1
28 -2 31 -7 3 -4 10 -6 15 -3 5 4 9 2 9 -4 0 -5 9 -8 19 -6 11 2 25 -3 31 -11
7 -7 17 -11 23 -7 5 3 7 2 4 -4 -3 -5 5 -21 19 -36 14 -15 20 -27 13 -27 -8 0
-8 -4 1 -15 6 -8 8 -20 4 -26 -4 -8 -3 -9 4 -5 7 4 12 1 12 -9 0 -9 -4 -14 -8
-11 -4 2 -8 -4 -8 -15 0 -10 5 -19 11 -19 5 0 3 -5 -5 -10 -8 -5 -15 -19 -15
-32 0 -14 -9 -27 -25 -35 -14 -7 -20 -13 -15 -13 17 0 -43 -28 -67 -32 -13 -2
-29 -10 -36 -18 -10 -13 -11 -13 -6 2 3 10 1 18 -5 18 -6 0 -11 -5 -11 -10 0
-6 -48 -9 -128 -8 -71 1 -134 -2 -140 -6 -7 -4 -12 -2 -12 4 0 8 -6 8 -20 0
-16 -9 -20 -8 -21 7 0 11 -3 13 -6 6 -5 -14 -42 -17 -58 -5 -5 4 -10 14 -10
22 0 8 5 18 10 22 7 5 6 8 0 8 -6 0 -11 9 -11 20 0 11 4 20 9 20 4 0 5 6 0 13
-10 17 -11 67 0 67 4 0 5 6 0 13 -11 17 -11 61 1 69 6 4 6 11 -2 20 -9 11 -9
17 0 26 7 7 8 12 2 12 -6 0 -11 7 -11 15 0 8 4 12 9 9 4 -3 8 0 8 7 0 8 4 8
15 -1 12 -10 15 -10 15 1z"/>
<path d="M2511 344 c0 -11 3 -14 6 -6 3 7 2 16 -1 19 -3 4 -6 -2 -5 -13z"/>
</g>
</svg>
