<?xml version="1.0" encoding="UTF-8" standalone="no"?>
<!-- Created with Inkscape (http://www.inkscape.org/) -->

<svg
   width="181.37566"
   height="40"
   viewBox="0 0 47.988974 10.583333"
   version="1.1"
   id="svg5"
   inkscape:version="1.2.1 (9c6d41e410, 2022-07-14)"
   sodipodi:docname="logo_editable.svg"
   xmlns:inkscape="http://www.inkscape.org/namespaces/inkscape"
   xmlns:sodipodi="http://sodipodi.sourceforge.net/DTD/sodipodi-0.dtd"
   xmlns="http://www.w3.org/2000/svg"
   xmlns:svg="http://www.w3.org/2000/svg">
  <sodipodi:namedview
     id="namedview7"
     pagecolor="#ffffff"
     bordercolor="#999999"
     borderopacity="1"
     inkscape:showpageshadow="0"
     inkscape:pageopacity="0"
     inkscape:pagecheckerboard="true"
     inkscape:deskcolor="#d1d1d1"
     inkscape:document-units="px"
     showgrid="false"
     showguides="true"
     inkscape:zoom="5.7299664"
     inkscape:cx="77.051063"
     inkscape:cy="23.822129"
     inkscape:window-width="1920"
     inkscape:window-height="991"
     inkscape:window-x="-9"
     inkscape:window-y="-9"
     inkscape:window-maximized="1"
     inkscape:current-layer="layer1">
    <sodipodi:guide
       position="11.77354,10.510163"
       orientation="0,-1"
       id="guide5365"
       inkscape:locked="false" />
    <sodipodi:guide
       position="4.524007,-8.1677761"
       orientation="0,-1"
       id="guide5367"
       inkscape:locked="false" />
  </sodipodi:namedview>
  <defs
     id="defs2">
    <rect
       x="247.12186"
       y="216.40614"
       width="257.59314"
       height="99.826065"
       id="rect4559" />
  </defs>
  <g
     inkscape:label="Layer 1"
     inkscape:groupmode="layer"
     id="layer1"
     transform="translate(-53.241382,-71.406308)">
    <g
       aria-label="Optical"
       transform="matrix(0.15084507,0,0,0.15084507,26.572831,35.329236)"
       id="text4557"
       style="font-size:85.3333px;font-family:'Liberation Sans';-inkscape-font-specification:'Liberation Sans, Normal';white-space:pre;shape-inside:url(#rect4559);fill:#6096ba">
      <path
         d="m 302.06383,267.34871 q 0,8.02084 -3.17188,14.10938 -3.17187,6.08854 -9.07813,9.33334 -5.90625,3.20833 -13.78125,3.20833 -12.10418,0 -18.9948,-7.10938 -6.85417,-7.14583 -6.85417,-19.54167 0,-12.35938 6.85417,-19.28647 6.85417,-6.92709 19.06771,-6.92709 12.21355,0 19.06772,7.00001 6.89063,7 6.89063,19.21355 z m -10.97397,0 q 0,-8.31251 -3.9375,-13.01563 -3.9375,-4.73959 -11.04688,-4.73959 -7.21875,0 -11.15625,4.70313 -3.9375,4.66667 -3.9375,13.05209 0,8.45834 4.01041,13.34375 4.04688,4.84896 11.01043,4.84896 7.21875,0 11.11979,-4.73958 3.9375,-4.73959 3.9375,-13.45313 z"
         style="font-weight:bold;font-size:74.6667px;-inkscape-font-specification:'Liberation Sans, Bold'"
         id="path5372" />
      <path
         d="m 347.74614,273.36434 q 0,9.88021 -3.97396,15.27604 -3.9375,5.35938 -11.15625,5.35938 -4.15626,0 -7.25522,-1.78646 -3.0625,-1.82291 -4.70312,-5.21354 h -0.21875 q 0.21875,1.09375 0.21875,6.63542 v 15.13021 h -10.2448 v -45.8646 q 0,-5.57813 -0.29167,-9.07813 h 9.95313 q 0.18229,0.65625 0.29167,2.58854 0.14583,1.9323 0.14583,3.82813 h 0.14584 q 3.46354,-7.25521 12.61459,-7.25521 6.89062,0 10.68229,5.32292 3.79167,5.28646 3.79167,15.0573 z m -10.6823,0 q 0,-13.27084 -8.13021,-13.27084 -4.08333,0 -6.27083,3.57291 -2.15105,3.57292 -2.15105,9.98959 0,6.38021 2.15105,9.88022 2.1875,3.46354 6.19792,3.46354 8.20312,0 8.20312,-13.63542 z"
         style="font-weight:bold;font-size:74.6667px;-inkscape-font-specification:'Liberation Sans, Bold'"
         id="path5374" />
      <path
         d="m 366.12115,293.92685 q -4.52084,0 -6.96355,-2.44271 -2.44271,-2.47917 -2.44271,-7.47397 v -23.26042 h -4.99479 v -6.92709 h 5.50521 l 3.20833,-9.26042 h 6.41667 v 9.26042 h 7.47397 v 6.92709 h -7.47397 v 20.48959 q 0,2.88021 1.09375,4.26563 1.09375,1.34896 3.39063,1.34896 1.20313,0 3.42709,-0.51042 v 6.34375 q -3.79167,1.23959 -8.64063,1.23959 z"
         style="font-weight:bold;font-size:74.6667px;-inkscape-font-specification:'Liberation Sans, Bold'"
         id="path5376" />
      <path
         d="m 380.88678,246.71328 v -7.54688 h 10.24479 v 7.54688 z m 0,46.55732 v -39.44794 h 10.24479 v 39.44794 z"
         style="font-weight:bold;font-size:74.6667px;-inkscape-font-specification:'Liberation Sans, Bold'"
         id="path5378" />
      <path
         d="m 418.07431,293.99976 q -8.96876,0 -13.85418,-5.32292 -4.88542,-5.35937 -4.88542,-14.91146 0,-9.77084 4.92188,-15.20313 4.92188,-5.46876 13.96355,-5.46876 6.96354,0 11.52084,3.5 4.55729,3.50001 5.72396,9.66147 l -10.31771,0.51041 q -0.4375,-3.02604 -2.18751,-4.8125 -1.75,-1.82292 -4.95833,-1.82292 -7.91146,0 -7.91146,13.23439 0,13.63542 8.05729,13.63542 2.91667,0 4.88542,-1.82292 1.96875,-1.85937 2.44271,-5.50521 l 10.28126,0.47396 q -0.54688,4.04688 -2.91667,7.21875 -2.33334,3.17188 -6.16146,4.92188 -3.82813,1.71354 -8.60417,1.71354 z"
         style="font-weight:bold;font-size:74.6667px;-inkscape-font-specification:'Liberation Sans, Bold'"
         id="path5380" />
      <path
         d="m 452.27224,293.99976 q -5.72396,0 -8.9323,-3.09896 -3.20833,-3.13542 -3.20833,-8.78646 0,-6.125 3.97396,-9.33334 4.01042,-3.20833 11.59375,-3.28125 l 8.4948,-0.14583 v -2.00521 q 0,-3.86459 -1.34896,-5.72396 -1.34896,-1.89584 -4.41146,-1.89584 -2.84375,0 -4.19271,1.3125 -1.3125,1.27605 -1.64063,4.26563 l -10.68229,-0.51042 q 0.98437,-5.76042 5.25,-8.71354 4.30209,-2.98959 11.70313,-2.98959 7.47396,0 11.52084,3.6823 4.04688,3.68229 4.04688,10.46354 v 14.36459 q 0,3.31771 0.72916,4.59376 0.76563,1.23958 2.51563,1.23958 1.16667,0 2.26042,-0.21875 v 5.54167 q -0.91146,0.21875 -1.64063,0.40104 -0.72917,0.18229 -1.45833,0.29167 -0.72917,0.10937 -1.56771,0.18229 -0.80209,0.0729 -1.89584,0.0729 -3.86458,0 -5.72396,-1.89584 -1.82291,-1.89583 -2.1875,-5.57813 h -0.21875 q -4.30208,7.76563 -12.97917,7.76563 z m 11.92188,-18.9948 -5.25,0.0729 q -3.57292,0.14583 -5.06771,0.80208 -1.4948,0.61979 -2.29688,1.93229 -0.76563,1.31251 -0.76563,3.50001 0,2.80729 1.27605,4.19271 1.3125,1.34896 3.46354,1.34896 2.40625,0 4.375,-1.31251 2.00521,-1.3125 3.13542,-3.60937 1.13021,-2.33334 1.13021,-4.92188 z"
         style="font-weight:bold;font-size:74.6667px;-inkscape-font-specification:'Liberation Sans, Bold'"
         id="path5382" />
      <path
         d="m 484.68371,293.2706 v -54.1042 h 10.2448 v 54.1042 z"
         style="font-weight:bold;font-size:74.6667px;-inkscape-font-specification:'Liberation Sans, Bold'"
         id="path5384" />
    </g>
    <path
       d="m 59.431462,76.443198 -0.441929,-1.272755 h -1.898527 l -0.441929,1.272755 h -1.042952 l 1.817213,-4.981423 h 1.230329 l 1.810141,4.981423 z m -1.392961,-4.214234 -0.02121,0.07778 q -0.03535,0.127275 -0.08485,0.289906 -0.0495,0.162629 -0.608094,1.788927 h 1.431849 L 58.264771,72.953729 58.112748,72.47291 Z"
       id="path5351"
       style="font-weight:bold;font-size:48px;font-family:'Liberation Sans';-inkscape-font-specification:'Liberation Sans, Bold';white-space:pre;fill:#274c77;stroke-width:0.150845" />
    <path
       d="m 57.657136,80.497688 q 0,0.678803 -0.509102,1.050024 -0.509103,0.37122 -1.414173,0.37122 h -2.492479 v -4.981423 h 2.280353 q 0.912141,0 1.378818,0.31819 0.470212,0.314652 0.470212,0.933354 0,0.424252 -0.236873,0.717692 -0.233339,0.289905 -0.714158,0.392433 0.604558,0.07071 0.919212,0.381826 0.31819,0.307582 0.31819,0.816684 z M 56.320742,78.33047 q 0,-0.335867 -0.215662,-0.477284 -0.212126,-0.141418 -0.632842,-0.141418 h -1.187904 v 1.233866 h 1.194976 q 0.441928,0 0.639912,-0.152023 0.20152,-0.155559 0.20152,-0.463141 z m 0.289906,2.085904 q 0,-0.700015 -1.004062,-0.700015 h -1.322252 v 1.428314 h 1.361141 q 0.50203,0 0.731834,-0.180308 0.233339,-0.183842 0.233339,-0.547991 z"
       id="path5353"
       style="font-weight:bold;font-size:48px;font-family:'Liberation Sans';-inkscape-font-specification:'Liberation Sans, Bold';white-space:pre;fill:#274c77;stroke-width:0.150845" />
    <path
       d="m 60.796599,81.169421 q 0.94396,0 1.311644,-0.947496 l 0.908606,0.342937 q -0.293441,0.721228 -0.862645,1.074772 -0.565669,0.350007 -1.357605,0.350007 -1.202047,0 -1.859638,-0.678803 -0.654055,-0.682339 -0.654055,-1.905597 0,-1.226796 0.632843,-1.884385 0.632842,-0.657591 1.834888,-0.657591 0.876788,0 1.428315,0.353543 0.551527,0.350009 0.774259,1.032346 l -0.919212,0.251017 q -0.11667,-0.374757 -0.459605,-0.593953 -0.339402,-0.222733 -0.802545,-0.222733 -0.707086,0 -1.07477,0.438394 -0.36415,0.438393 -0.36415,1.283362 0,0.859109 0.374757,1.311645 0.378291,0.452535 1.088913,0.452535 z"
       id="path5355"
       style="font-weight:bold;font-size:48px;font-family:'Liberation Sans';-inkscape-font-specification:'Liberation Sans, Bold';white-space:pre;fill:#274c77;stroke-width:0.150845" />
  </g>
</svg>
